<svg width="349" height="261" viewBox="0 0 349 261" fill="none" xmlns="http://www.w3.org/2000/svg">
<path d="M203.37 4.85167L221.773 63.491L222.438 65.6081L224.619 65.1997L295.913 51.85L267.842 102.217L266.344 104.905L269.281 105.821L341.036 128.208L278.501 151.966L275.011 153.293L277.567 156.015L323.357 204.782L249.05 193.448L246.009 192.984L246.177 196.056L249.328 253.632L191.101 210.38L189.32 209.056L187.795 210.668L145.548 255.305L127.146 196.666L126.481 194.549L124.3 194.957L53.0056 208.307L81.0771 157.94L82.5749 155.252L79.638 154.336L7.88306 131.949L70.4173 108.191L73.908 106.864L71.352 104.142L25.5614 55.3754L99.8683 66.7089L102.91 67.1728L102.741 64.1009L99.5905 6.52537L157.818 49.7774L159.599 51.1006L161.124 49.489L203.37 4.85167Z" fill="#F7DD7E" stroke="black" stroke-width="5"/>
</svg>
