<svg width="312" height="251" viewBox="0 0 312 251" fill="none" xmlns="http://www.w3.org/2000/svg">
<path d="M199.705 12.3687L218.996 71.379L219.456 72.784L220.908 73.0587L293.343 86.757L258.032 130.641L256.641 132.37L258.192 133.956L306.13 183.007L237.683 187.382L235.469 187.524L235.346 189.739L232.224 245.979L169.228 207.69L167.965 206.923L166.683 207.659L112.862 238.604L93.5703 179.594L93.111 178.189L91.6586 177.914L19.2235 164.216L54.5349 120.332L55.9255 118.603L54.3751 117.017L6.43669 67.9658L74.8836 63.5906L77.0973 63.4491L77.2203 61.2343L80.3432 4.9939L143.339 43.2826L144.602 44.0504L145.883 43.3136L199.705 12.3687Z" fill="#F7DD7E" stroke="black" stroke-width="5"/>
</svg>
